{
	"asset":{
		"version":"2.0",
		"generator":"Created using the official Cinema 4D glTF Exporter 1.000x290161"
	},
	"scenes":[{
		"nodes":[0,
		1,
		2]
	}],
	"nodes":[{
		"name":"Polygon",
		"mesh":0
	},
	{
		"name":"Cube",
		"translation":[-23.778440475463868,
		0.0,
		0.0],
		"rotation":[0.0,
		0.0,
		0.24980972707271577,
		-0.9682949185371399],
		"scale":[1.0,
		1.0,
		1.0],
		"mesh":1
	},
	{
		"name":"Null",
		"translation":[22.189512252807618,
		-3.5711605548858644,
		0.0],
		"rotation":[0.0,
		0.0,
		0.0,
		-1.0],
		"scale":[1.0,
		1.0,
		1.0],
		"children":[3,
		4,
		5]
	},
	{
		"name":"Plane",
		"translation":[9.636316299438477,
		3.5711605548858644,
		-3.757884979248047],
		"rotation":[0.0,
		0.0,
		0.7071067690849304,
		-0.7071067690849304],
		"scale":[1.0,
		1.0,
		1.0],
		"mesh":2
	},
	{
		"name":"Torus",
		"mesh":3
	},
	{
		"name":"Sphere.1",
		"translation":[0.0,
		6.104737281799316,
		0.0],
		"rotation":[0.0,
		0.0,
		0.0,
		-1.0],
		"scale":[1.0,
		1.0,
		1.0],
		"mesh":4
	}],
	"meshes":[{
		"primitives":[{
			"attributes":{
				"POSITION":1,
				"NORMAL":2,
				"TEXCOORD_0":3
			},
			"indices":0,
			"material":0
		}]
	},
	{
		"primitives":[{
			"attributes":{
				"POSITION":5,
				"NORMAL":6,
				"TEXCOORD_0":7
			},
			"indices":4,
			"material":1
		}]
	},
	{
		"primitives":[{
			"attributes":{
				"POSITION":9,
				"NORMAL":10,
				"TEXCOORD_0":11
			},
			"indices":8,
			"material":2
		}]
	},
	{
		"primitives":[{
			"attributes":{
				"POSITION":13,
				"NORMAL":14,
				"TEXCOORD_0":15
			},
			"indices":12,
			"material":3
		}]
	},
	{
		"primitives":[{
			"attributes":{
				"POSITION":17,
				"NORMAL":18,
				"TEXCOORD_0":19
			},
			"indices":16,
			"material":4
		}]
	}],
	"accessors":[{
		"bufferView":0,
		"type":"SCALAR",
		"componentType":5123,
		"count":3,
		"byteOffset":0,
		"min":[0],
		"max":[2]
	},
	{
		"bufferView":1,
		"type":"VEC3",
		"componentType":5126,
		"count":3,
		"byteOffset":0,
		"min":[-5.0,
		0.0,
		-5.0],
		"max":[5.0,
		0.0,
		5.0]
	},
	{
		"bufferView":1,
		"type":"VEC3",
		"componentType":5126,
		"count":3,
		"byteOffset":12,
		"min":[0.0,
		1.0,
		0.0],
		"max":[0.0,
		1.0,
		0.0]
	},
	{
		"bufferView":1,
		"type":"VEC2",
		"componentType":5126,
		"count":3,
		"byteOffset":24,
		"min":[0.0,
		0.0],
		"max":[1.0,
		1.0]
	},
	{
		"bufferView":2,
		"type":"SCALAR",
		"componentType":5123,
		"count":36,
		"byteOffset":0,
		"min":[0],
		"max":[23]
	},
	{
		"bufferView":3,
		"type":"VEC3",
		"componentType":5126,
		"count":24,
		"byteOffset":0,
		"min":[-2.581413984298706,
		-10.0,
		-10.0],
		"max":[2.581413984298706,
		10.0,
		10.0]
	},
	{
		"bufferView":3,
		"type":"VEC3",
		"componentType":5126,
		"count":24,
		"byteOffset":12,
		"min":[-1.0,
		-1.0,
		-1.0],
		"max":[1.0,
		1.0,
		1.0]
	},
	{
		"bufferView":3,
		"type":"VEC2",
		"componentType":5126,
		"count":24,
		"byteOffset":24,
		"min":[0.0,
		0.0],
		"max":[1.0,
		1.0]
	},
	{
		"bufferView":4,
		"type":"SCALAR",
		"componentType":5123,
		"count":600,
		"byteOffset":0,
		"min":[0],
		"max":[120]
	},
	{
		"bufferView":5,
		"type":"VEC3",
		"componentType":5126,
		"count":121,
		"byteOffset":0,
		"min":[-4.811374187469482,
		0.0,
		-6.989691734313965],
		"max":[4.811374187469482,
		0.0,
		6.989691734313965]
	},
	{
		"bufferView":5,
		"type":"VEC3",
		"componentType":5126,
		"count":121,
		"byteOffset":12,
		"min":[0.0,
		1.0,
		0.0],
		"max":[0.0,
		1.0,
		0.0]
	},
	{
		"bufferView":5,
		"type":"VEC2",
		"componentType":5126,
		"count":121,
		"byteOffset":24,
		"min":[0.0,
		0.0],
		"max":[1.0,
		1.0]
	},
	{
		"bufferView":6,
		"type":"SCALAR",
		"componentType":5123,
		"count":3072,
		"byteOffset":0,
		"min":[0],
		"max":[560]
	},
	{
		"bufferView":7,
		"type":"VEC3",
		"componentType":5126,
		"count":561,
		"byteOffset":0,
		"min":[-6.694886684417725,
		-1.6948864459991456,
		-6.694886684417725],
		"max":[6.694886684417725,
		1.6948864459991456,
		6.694886684417725]
	},
	{
		"bufferView":7,
		"type":"VEC3",
		"componentType":5126,
		"count":561,
		"byteOffset":12,
		"min":[-1.0,
		-0.9999786615371704,
		-1.0],
		"max":[1.0,
		0.9999786615371704,
		1.0]
	},
	{
		"bufferView":7,
		"type":"VEC2",
		"componentType":5126,
		"count":561,
		"byteOffset":24,
		"min":[0.0,
		0.0],
		"max":[1.0,
		1.0]
	},
	{
		"bufferView":8,
		"type":"SCALAR",
		"componentType":5123,
		"count":672,
		"byteOffset":0,
		"min":[0],
		"max":[150]
	},
	{
		"bufferView":9,
		"type":"VEC3",
		"componentType":5126,
		"count":151,
		"byteOffset":0,
		"min":[-5.0,
		-5.0,
		-5.0],
		"max":[5.0,
		5.0,
		5.0]
	},
	{
		"bufferView":9,
		"type":"VEC3",
		"componentType":5126,
		"count":151,
		"byteOffset":12,
		"min":[-0.9999999403953552,
		-1.0,
		-0.9999999403953552],
		"max":[0.9999999403953552,
		1.0,
		0.9999999403953552]
	},
	{
		"bufferView":9,
		"type":"VEC2",
		"componentType":5126,
		"count":151,
		"byteOffset":24,
		"min":[0.0,
		0.0],
		"max":[1.0,
		1.0]
	}],
	"bufferViews":[{
		"buffer":0,
		"byteOffset":0,
		"byteLength":6,
		"target":34963
	},
	{
		"buffer":0,
		"byteOffset":8,
		"byteLength":96,
		"target":34962,
		"byteStride":32
	},
	{
		"buffer":1,
		"byteOffset":0,
		"byteLength":72,
		"target":34963
	},
	{
		"buffer":1,
		"byteOffset":72,
		"byteLength":768,
		"target":34962,
		"byteStride":32
	},
	{
		"buffer":2,
		"byteOffset":0,
		"byteLength":1200,
		"target":34963
	},
	{
		"buffer":2,
		"byteOffset":1200,
		"byteLength":3872,
		"target":34962,
		"byteStride":32
	},
	{
		"buffer":3,
		"byteOffset":0,
		"byteLength":6144,
		"target":34963
	},
	{
		"buffer":3,
		"byteOffset":6144,
		"byteLength":17952,
		"target":34962,
		"byteStride":32
	},
	{
		"buffer":4,
		"byteOffset":0,
		"byteLength":1344,
		"target":34963
	},
	{
		"buffer":4,
		"byteOffset":1344,
		"byteLength":4832,
		"target":34962,
		"byteStride":32
	}],
	"buffers":[{
		"uri":"data:application/octet-stream;base64,",
		"byteLength":104
	},
	{
		"uri":"data:application/octet-stream;base64,",
		"byteLength":840
	},
	{
		"uri":"data:application/octet-stream;base64,",
		"byteLength":5072
	},
	{
		"uri":"data:application/octet-stream;base64,",
		"byteLength":24096
	},
	{
		"uri":"data:application/octet-stream;base64,",
		"byteLength":6176
	}],
	"materials":[{
		"pbrMetallicRoughness":{
			"baseColorFactor":[1.0,
			1.0,
			1.0,
			1.0],
			"metallicFactor":1.0,
			"roughnessFactor":1.0
		},
		"emissiveFactor":[0.0,
		0.0,
		0.0],
		"alphaMode":"OPAQUE",
		"doubleSided":false,
		"name":""
	},
	{
		"pbrMetallicRoughness":{
			"baseColorFactor":[1.0,
			1.0,
			1.0,
			1.0],
			"metallicFactor":1.0,
			"roughnessFactor":1.0
		},
		"emissiveFactor":[0.0,
		0.0,
		0.0],
		"alphaMode":"OPAQUE",
		"doubleSided":false,
		"name":""
	},
	{
		"pbrMetallicRoughness":{
			"baseColorFactor":[1.0,
			1.0,
			1.0,
			1.0],
			"metallicFactor":1.0,
			"roughnessFactor":1.0
		},
		"emissiveFactor":[0.0,
		0.0,
		0.0],
		"alphaMode":"OPAQUE",
		"doubleSided":false,
		"name":""
	},
	{
		"pbrMetallicRoughness":{
			"baseColorFactor":[1.0,
			1.0,
			1.0,
			1.0],
			"metallicFactor":1.0,
			"roughnessFactor":1.0
		},
		"emissiveFactor":[0.0,
		0.0,
		0.0],
		"alphaMode":"OPAQUE",
		"doubleSided":false,
		"name":""
	},
	{
		"pbrMetallicRoughness":{
			"baseColorFactor":[1.0,
			1.0,
			1.0,
			1.0],
			"metallicFactor":1.0,
			"roughnessFactor":1.0
		},
		"emissiveFactor":[0.0,
		0.0,
		0.0],
		"alphaMode":"OPAQUE",
		"doubleSided":false,
		"name":""
	}]
}